<svg xmlns="http://www.w3.org/2000/svg" width="50" height="58" viewBox="0 0 50 58"><g><g><path fill="#c8342d" d="M35.664 28.86c.538.527.874 1.26.874 2.073 0 .745-.288 1.42-.75 1.934.461.514.75 1.188.75 1.933 0 .745-.288 1.419-.75 1.933.461.515.75 1.188.75 1.934a2.895 2.895 0 0 1-1.923 2.722v6.944c0 .26-.105.503-.283.682l.002.002-8.654 8.7a.956.956 0 0 1-1.36 0l-8.654-8.7.002-.002a.966.966 0 0 1-.283-.682V41.39a2.895 2.895 0 0 1-1.923-2.722c0-.746.288-1.42.75-1.934a2.89 2.89 0 0 1-.75-1.933c0-.745.288-1.42.75-1.933a2.89 2.89 0 0 1-.75-1.934c0-.813.336-1.546.874-2.074a16.495 16.495 0 0 1-5.682-12.426C8.654 7.371 15.987 0 25 0S41.346 7.37 41.346 16.433c0 4.78-2.103 9.319-5.682 12.426zm-9.14 25.273h-3.049L25 55.666zm5.62-5.649l-1.375-.922-2.352 1.575a.957.957 0 0 1-1.066 0L25 47.562l-2.352 1.575a.957.957 0 0 1-1.066 0l-2.351-1.575-1.375.92 3.696 3.718h6.896zm.548-6.917H17.308v4.96l1.39-.931a.957.957 0 0 1 1.066 0l2.351 1.575 2.352-1.575a.957.957 0 0 1 1.067 0l2.35 1.575 2.352-1.575a.957.957 0 0 1 1.067 0l1.39.93zm1.923-2.9a.966.966 0 0 0-.961-.967H16.346a.966.966 0 0 0 0 1.933h17.308c.53 0 .961-.434.961-.966zm0-3.867a.965.965 0 0 0-.961-.967H16.346a.965.965 0 0 0-.961.967c0 .533.431.967.961.967h17.308c.53 0 .961-.434.961-.967zm0-3.867c0-.53-.428-.96-.953-.965l-.012-.002H16.346a.966.966 0 0 0-.961.967c0 .533.431.967.961.967h17.308c.53 0 .961-.434.961-.967zm-14.423-17.4c0-.223.021-.443.05-.662a4.999 4.999 0 0 1 .148-.679c.017-.053.03-.108.047-.161.069-.206.149-.407.244-.601.018-.037.04-.07.058-.107a4.65 4.65 0 0 1 .275-.463c.019-.027.032-.058.051-.085a2.74 2.74 0 0 0-.873-.142c-1.536 0-2.884 1.453-2.884 3.11 0 1.422.623 2.759 1.71 3.67l3.713 3.111c.219.184.346.455.346.742v6.767h3.846v-6.767c0-.287.127-.558.346-.742l3.714-3.111a4.773 4.773 0 0 0 1.71-3.67c0-1.657-1.349-3.11-2.885-3.11-.3 0-.593.048-.874.142.019.027.032.057.05.085.1.15.193.304.276.463.019.036.041.07.058.107.095.194.175.395.243.6.019.054.032.108.048.162.048.162.086.326.116.492.011.063.023.124.032.187.03.219.05.439.05.662 0 1.453-.655 2.82-1.8 3.748a.957.957 0 0 1-1.207 0 4.814 4.814 0 0 1-1.8-3.748c0-.223.021-.443.053-.662.008-.063.02-.125.032-.187.03-.166.069-.33.116-.492.015-.054.029-.108.046-.161a4.73 4.73 0 0 1 .243-.601c.018-.036.039-.069.057-.104.085-.161.178-.317.28-.469.017-.026.03-.055.048-.08a2.787 2.787 0 0 0-1.748 0c.018.025.03.054.048.08.102.151.196.308.28.47.018.035.04.068.057.103.095.194.175.395.243.6.017.054.03.108.046.162.048.162.086.326.116.492a4.884 4.884 0 0 1 .083.849c0 1.453-.656 2.82-1.8 3.748a.957.957 0 0 1-1.208 0 4.814 4.814 0 0 1-1.8-3.748zm1.988.567l.03.133c.047.18.105.359.186.528.006.012.015.025.021.038.05.1.118.19.18.284.06-.094.128-.185.178-.284l.021-.038c.08-.17.14-.347.186-.528.011-.043.02-.089.03-.133.038-.186.065-.375.065-.567 0-.192-.027-.38-.065-.567-.01-.045-.019-.09-.03-.134a2.826 2.826 0 0 0-.186-.528l-.021-.036c-.05-.1-.117-.19-.179-.284-.061.093-.129.184-.179.284l-.02.038c-.082.169-.14.346-.187.527-.011.044-.02.09-.03.133a2.86 2.86 0 0 0-.065.567c0 .192.027.381.065.567zm4.807 0l.031.133c.046.18.105.359.186.528l.021.038c.05.1.117.19.179.284.061-.094.129-.185.179-.284.006-.013.015-.026.02-.038.082-.17.14-.347.186-.528a2.857 2.857 0 0 0 .095-.7 2.875 2.875 0 0 0-.095-.7 2.826 2.826 0 0 0-.185-.529c-.007-.012-.016-.024-.021-.036-.05-.1-.118-.19-.18-.284-.06.093-.128.184-.178.284-.007.012-.015.025-.021.038-.081.169-.14.346-.186.527-.011.044-.02.09-.03.133a2.86 2.86 0 0 0-.065.567c0 .192.027.381.064.567zm12.436 2.333c0-7.995-6.47-14.5-14.423-14.5s-14.423 6.505-14.423 14.5a14.56 14.56 0 0 0 5.79 11.6h4.787v-6.314l-3.367-2.82a6.706 6.706 0 0 1-2.402-5.155c0-2.734 2.202-5.044 4.807-5.044.854 0 1.672.236 2.408.674a4.779 4.779 0 0 1 4.801 0 4.675 4.675 0 0 1 2.407-.674c2.605 0 4.807 2.31 4.807 5.044a6.702 6.702 0 0 1-2.402 5.153l-3.367 2.822v6.314h4.787a14.56 14.56 0 0 0 5.79-11.6zm.28-12.282L43.55.285l1.36 1.367-3.846 3.866zm0 24.564l1.36-1.367 3.845 3.867-1.36 1.367zm4.528-13.248H50V17.4h-5.77zM5.089 1.65L6.45.284l3.846 3.866-1.36 1.367zm0 29.565l3.846-3.867 1.36 1.367-3.846 3.867zM0 15.466h5.77V17.4H0zM36.538 46.4h1.923v1.933h-1.923zm3.847 0h1.923v1.933h-1.923zm3.846 0h1.923v1.933H44.23zm-40.385 0H5.77v1.933H3.846zm3.846 0h1.923v1.933H7.692zm3.846 0h1.923v1.933h-1.923z"/></g></g></svg>