<?xml version="1.0"?>
<svg xmlns="http://www.w3.org/2000/svg" viewBox="0 0 64 64" width="512px" height="512px" class=""><g><g id="Outline"><g><path d="M61,18a1,1,0,0,0-1,1V41a3,3,0,0,1-3,3H7a3,3,0,0,1-3-3V40H57a1,1,0,0,0,0-2H4V32a1,1,0,0,0-2,0v9a5.006,5.006,0,0,0,5,5H22.937a8.592,8.592,0,0,1-2.472,5.122L19.586,52H18a7.008,7.008,0,0,0-7,7,1,1,0,0,0,1,1H41a1,1,0,0,0,0-2H13.1A5.008,5.008,0,0,1,18,54H46a5.008,5.008,0,0,1,4.9,4H45a1,1,0,0,0,0,2h7a1,1,0,0,0,1-1,7.008,7.008,0,0,0-7-7H44.414l-.879-.878A8.592,8.592,0,0,1,41.063,46H57a5.006,5.006,0,0,0,5-5V19A1,1,0,0,0,61,18ZM41.62,52H22.38a10.57,10.57,0,0,0,2.574-6H39.046A10.57,10.57,0,0,0,41.62,52Z" data-original="#000000" class="active-path" data-old_color="#000000" fill="#C8342D"/><path d="M57,4H7A5.006,5.006,0,0,0,2,9V28a1,1,0,0,0,2,0V9A3,3,0,0,1,7,6H57a3,3,0,0,1,3,3v6a1,1,0,0,0,2,0V9A5.006,5.006,0,0,0,57,4Z" data-original="#000000" class="active-path" data-old_color="#000000" fill="#C8342D"/><path d="M16,17.784V17a1,1,0,0,0-2,0v.784a7.007,7.007,0,0,1-1,3.6L8.7,28.556A4.916,4.916,0,0,0,12.915,36h10.17a4.919,4.919,0,0,0,4.822-4H31a1,1,0,0,0,.707-.293l2-2a1,1,0,0,0-1.414-1.414L30.586,30H27.869a4.928,4.928,0,0,0-.569-1.445L23,21.386a7.013,7.013,0,0,1-1-3.6V14a3,3,0,0,0,0-6H14a3,3,0,0,0,0,6h6v3.784a9.01,9.01,0,0,0,1.282,4.631l1.088,1.813c-.024.022-.054.042-.077.065a1.831,1.831,0,0,1-2.586,0,3.833,3.833,0,0,0-5.414,0,1.793,1.793,0,0,1-1.008.509l1.433-2.387A9,9,0,0,0,16,17.784ZM13,11a1,1,0,0,1,1-1h8a1,1,0,0,1,0,2H14A1,1,0,0,1,13,11Zm2.707,14.707a1.831,1.831,0,0,1,2.586,0,3.793,3.793,0,0,0,5.113.246l2.179,3.631a2.876,2.876,0,0,1,.178.416H22a1,1,0,0,0,0,2h3.838a2.908,2.908,0,0,1-2.753,2H12.915a2.917,2.917,0,0,1-2.5-4.416l1.726-2.876A3.791,3.791,0,0,0,15.707,25.707Z" data-original="#000000" class="active-path" data-old_color="#000000" fill="#C8342D"/><circle cx="13" cy="31" r="1" data-original="#000000" class="active-path" data-old_color="#000000" fill="#C8342D"/><circle cx="17" cy="28" r="1" data-original="#000000" class="active-path" data-old_color="#000000" fill="#C8342D"/><circle cx="17" cy="32" r="1" data-original="#000000" class="active-path" data-old_color="#000000" fill="#C8342D"/><path d="M32.066,24.493l.29.387a1,1,0,0,0,1.6-1.2l-.29-.387a3.312,3.312,0,0,1-.314-3.489,5.3,5.3,0,0,0,.289-4.072L33.2,14.4a3.332,3.332,0,0,1,1.161-3.72,3.4,3.4,0,0,1,2.59-.631l1.13.188a6.087,6.087,0,0,1,4.048,2.618l1.908,2.862a5.769,5.769,0,0,1,.563,1.069l.222.556a5.834,5.834,0,0,1-6.14,7.956l-2.469-.308a1,1,0,0,0-.248,1.984l2.469.309a7.965,7.965,0,0,0,.985.061A7.836,7.836,0,0,0,46.676,16.6l-.223-.556A7.836,7.836,0,0,0,45.7,14.6l-1.908-2.861a8.086,8.086,0,0,0-5.384-3.481l-1.13-.189a5.419,5.419,0,0,0-4.118,1A5.326,5.326,0,0,0,31.3,15.03l.445,1.335a3.308,3.308,0,0,1-.182,2.544A5.307,5.307,0,0,0,32.066,24.493Z" data-original="#000000" class="active-path" data-old_color="#000000" fill="#C8342D"/><path d="M35.26,19.751a3,3,0,1,0,3-3A3,3,0,0,0,35.26,19.751Zm4,0a1,1,0,1,1-1-1A1,1,0,0,1,39.26,19.751Z" data-original="#000000" class="active-path" data-old_color="#000000" fill="#C8342D"/><circle cx="36" cy="13" r="1" data-original="#000000" class="active-path" data-old_color="#000000" fill="#C8342D"/><circle cx="40" cy="14" r="1" data-original="#000000" class="active-path" data-old_color="#000000" fill="#C8342D"/><path d="M56,12a1,1,0,0,0,0-2H52a1,1,0,0,0,0,2Z" data-original="#000000" class="active-path" data-old_color="#000000" fill="#C8342D"/><path d="M49,15a1,1,0,0,0,1,1h6a1,1,0,0,0,0-2H50A1,1,0,0,0,49,15Z" data-original="#000000" class="active-path" data-old_color="#000000" fill="#C8342D"/><path d="M50,20h6a1,1,0,0,0,0-2H50a1,1,0,0,0,0,2Z" data-original="#000000" class="active-path" data-old_color="#000000" fill="#C8342D"/><path d="M50,24h4a1,1,0,0,0,0-2H50a1,1,0,0,0,0,2Z" data-original="#000000" class="active-path" data-old_color="#000000" fill="#C8342D"/><path d="M37,30a1,1,0,0,0-1,1v4a1,1,0,0,0,1,1h4a1,1,0,0,0,1-1V31a1,1,0,0,0-1-1Zm3,4H38V32h2Z" data-original="#000000" class="active-path" data-old_color="#000000" fill="#C8342D"/><path d="M45,30a1,1,0,0,0,0,2h3v2H45a1,1,0,0,0,0,2h4a1,1,0,0,0,1-1V31a1,1,0,0,0-1-1Z" data-original="#000000" class="active-path" data-old_color="#000000" fill="#C8342D"/><path d="M53,30a1,1,0,0,0-1,1v4a1,1,0,0,0,1,1h4a1,1,0,0,0,1-1V31a1,1,0,0,0-1-1Zm3,4H54V32h2Z" data-original="#000000" class="active-path" data-old_color="#000000" fill="#C8342D"/></g></g></g> </svg>
