<svg xmlns="http://www.w3.org/2000/svg" width="50" height="50" viewBox="0 0 50 50"><g><g><path fill="#c8342d" d="M12.5 8.788c0 2.076-1.683 3.766-3.75 3.766-2.068 0-3.75-1.69-3.75-3.766s1.682-3.765 3.75-3.765c2.067 0 3.75 1.69 3.75 3.765zm-1.667 0A2.09 2.09 0 0 0 8.75 6.697a2.09 2.09 0 0 0-2.083 2.091A2.09 2.09 0 0 0 8.75 10.88a2.09 2.09 0 0 0 2.083-2.092zm30.834-2.091c.46 0 .833.374.833.836a.835.835 0 0 1-.833.837.835.835 0 0 1-.834-.837c0-.462.373-.837.834-.837zm-3.334 0c.46 0 .834.374.834.836a.835.835 0 0 1-.834.837.835.835 0 0 1-.833-.837c0-.462.373-.837.833-.837zm5 2.51c.46 0 .834.374.834.836a.835.835 0 0 1-.834.837.835.835 0 0 1-.833-.837c0-.462.373-.836.833-.836zm-3.333 0c.46 0 .833.374.833.836a.835.835 0 0 1-.833.837.835.835 0 0 1-.833-.837c0-.462.373-.836.833-.836zm-5-2.51c.46 0 .833.374.833.836A.835.835 0 0 1 35 8.37a.835.835 0 0 1-.833-.837c0-.462.373-.837.833-.837zm1.667 2.51c.46 0 .833.374.833.836a.835.835 0 0 1-.833.837.835.835 0 0 1-.834-.837c0-.462.373-.836.834-.836zm-5-2.51c.46 0 .833.374.833.836a.835.835 0 0 1-.833.837.835.835 0 0 1-.834-.837c0-.462.373-.837.834-.837zm1.666 2.51c.46 0 .834.374.834.836a.835.835 0 0 1-.834.837.835.835 0 0 1-.833-.837c0-.462.373-.836.833-.836zm-5-2.51c.46 0 .834.374.834.836a.835.835 0 0 1-.834.837.835.835 0 0 1-.833-.837c0-.462.373-.837.833-.837zM30 9.207c.46 0 .833.374.833.836a.835.835 0 0 1-.833.837.835.835 0 0 1-.833-.837c0-.462.373-.836.833-.836zM12.5 24.686c0 2.076-1.683 3.765-3.75 3.765-2.068 0-3.75-1.69-3.75-3.765 0-2.076 1.682-3.765 3.75-3.765 2.067 0 3.75 1.69 3.75 3.765zm-1.667 0a2.09 2.09 0 0 0-2.083-2.092 2.09 2.09 0 0 0-2.083 2.092 2.09 2.09 0 0 0 2.083 2.092 2.09 2.09 0 0 0 2.083-2.092zM12.5 40.584c0 2.076-1.683 3.765-3.75 3.765-2.068 0-3.75-1.69-3.75-3.765 0-2.076 1.682-3.766 3.75-3.766 2.067 0 3.75 1.69 3.75 3.766zm-1.667 0a2.09 2.09 0 0 0-2.083-2.092 2.09 2.09 0 0 0-2.083 2.092 2.09 2.09 0 0 0 2.083 2.092 2.09 2.09 0 0 0 2.083-2.092zm36.119-23.095c1.595.827 2.679 1.859 2.968 3.084.05.106.08.222.08.348V44.14a.833.833 0 0 1-.088.373c-.899 3.601-8.519 5.483-15.745 5.483-2.413 0-4.863-.214-7.098-.627H3.84c-2.118 0-3.84-1.73-3.84-3.856v-9.86c0-1.227.586-2.312 1.48-3.019A3.839 3.839 0 0 1 0 29.615v-9.859c0-1.228.586-2.313 1.48-3.02A3.838 3.838 0 0 1 0 13.718v-9.86C0 1.732 1.722.003 3.84.003h42.32c2.118 0 3.84 1.73 3.84 3.855v9.86a3.857 3.857 0 0 1-3.048 3.771zM3.84 31.8h14.493V20.92c0-.126.031-.241.08-.348.28-1.184 1.303-2.187 2.81-3H3.84a2.18 2.18 0 0 0-2.173 2.183v9.86a2.18 2.18 0 0 0 2.173 2.182zm16.192-7.665L20 24.112v4.153a.837.837 0 0 1 .017.323c-.01.058-.017.118-.017.177 0 .09.026.182.048.272a1.452 1.452 0 0 0 .165.406 2.116 2.116 0 0 0 .338.45c.033.037.066.073.103.11 1.768 1.712 6.97 3.259 13.513 3.259 6.547 0 11.753-1.548 13.517-3.262l.095-.1a2.165 2.165 0 0 0 .436-.64c.03-.072.052-.144.07-.216.022-.093.048-.187.048-.279a.969.969 0 0 0-.02-.183.817.817 0 0 1 .018-.295v-4.174l-.032.022a7.72 7.72 0 0 1-.49.346c-.038.025-.078.049-.117.073a9.43 9.43 0 0 1-.458.271l-.136.075c-.195.105-.396.207-.606.305-.033.016-.068.03-.102.046a14.118 14.118 0 0 1-.74.314c-.23.09-.464.179-.707.263l-.04.014a21.658 21.658 0 0 1-.909.287c-.24.071-.483.14-.732.204l-.06.016a27.202 27.202 0 0 1-1.754.391l-.145.029c-.286.053-.575.103-.867.15l-.21.032c-.242.038-.487.073-.733.106l-.202.026c-.299.039-.599.073-.901.105l-.183.018a36.762 36.762 0 0 1-.998.086c-.306.023-.613.043-.92.059l-.132.006c-.272.013-.543.023-.815.03l-.245.008a42.94 42.94 0 0 1-1.863 0l-.247-.007a36.972 36.972 0 0 1-.814-.031c-.044-.003-.088-.003-.131-.006a41.465 41.465 0 0 1-.921-.059c-.078-.005-.154-.012-.232-.018-.256-.02-.512-.043-.766-.068l-.183-.018a42.808 42.808 0 0 1-.9-.105l-.203-.026c-.247-.033-.491-.068-.734-.106l-.209-.033a33.249 33.249 0 0 1-.867-.15 29.818 29.818 0 0 1-1.9-.42c-.02-.004-.039-.01-.059-.015a25.944 25.944 0 0 1-1.681-.505 17.736 17.736 0 0 1-.707-.263c-.058-.022-.114-.046-.172-.07-.195-.079-.384-.16-.568-.244-.033-.015-.07-.03-.103-.046-.21-.098-.411-.2-.605-.305-.046-.024-.09-.05-.136-.075-.16-.089-.312-.18-.459-.271l-.115-.073a7.923 7.923 0 0 1-.49-.347zm28.253 12.44c.022-.093.048-.186.048-.279 0-.062-.008-.122-.016-.183a.82.82 0 0 1 .017-.295v-4.174c-.037.029-.079.055-.117.082a6.874 6.874 0 0 1-.608.411c-1.764 1.093-4.347 1.872-7.234 2.325l-.038.006c-.86.134-1.744.24-2.642.316a43.697 43.697 0 0 1-1.87.117c-.15.006-.297.013-.445.016-.404.012-.81.02-1.213.02-.404 0-.809-.008-1.215-.02-.147-.004-.294-.011-.44-.017a43.74 43.74 0 0 1-1.314-.072c-.19-.013-.379-.03-.568-.046-.89-.076-1.765-.18-2.618-.313l-.06-.009c-2.642-.416-5.032-1.103-6.77-2.054l-.005-.003a10.652 10.652 0 0 1-1.07-.684c-.035-.025-.074-.05-.107-.076v.156l.005 4.106c.007.07.023.141.012.213-.006.038-.008.076-.011.113v.1c.002.08.022.159.041.237a1.428 1.428 0 0 0 .165.406 2.09 2.09 0 0 0 .338.45c.033.037.067.073.103.11 1.768 1.713 6.971 3.26 13.514 3.26 6.546 0 11.752-1.549 13.516-3.262.034-.034.064-.067.095-.101.083-.087.155-.174.22-.26a2.185 2.185 0 0 0 .216-.379c.031-.072.053-.145.07-.217zM3.84 47.697h17.787a10.34 10.34 0 0 1-1.04-.588l-.046-.03a6.635 6.635 0 0 1-1.145-.93 5.208 5.208 0 0 1-.442-.528 3.748 3.748 0 0 1-.327-.552c-.015-.031-.034-.061-.047-.092h-.247V33.472H3.84a2.18 2.18 0 0 0-2.173 2.182v9.86a2.18 2.18 0 0 0 2.173 2.182zm44.493-8.522c-.036.028-.079.054-.116.081a6.933 6.933 0 0 1-.609.412c-1.764 1.092-4.346 1.871-7.234 2.325l-.038.006c-.86.134-1.744.239-2.642.315-.187.016-.372.032-.559.045a43.524 43.524 0 0 1-1.312.072c-.148.006-.296.013-.444.017-.404.011-.81.019-1.212.019-.405 0-.81-.008-1.215-.02-.148-.004-.295-.011-.441-.017a48.157 48.157 0 0 1-1.314-.071A38.082 38.082 0 0 1 28.011 42l-.06-.01c-2.642-.416-5.032-1.102-6.77-2.054l-.004-.002a10.2 10.2 0 0 1-1.07-.685c-.031-.023-.067-.045-.097-.068l.007 4.823c.016.104.057.208.1.313.023.05.044.1.073.152 0 .002 0 .003.002.004.641 1.121 2.935 2.45 7.079 3.238l-.001.007c2 .377 4.33.605 6.897.605 8.041 0 13.809-2.233 14.15-4.319a.859.859 0 0 1 .016-.078zM41.67 17.486a27.925 27.925 0 0 0-1.25-.24c-.117-.018-.23-.04-.347-.058-3.731-.577-8.084-.577-11.815 0l-.341.058c-.43.072-.849.154-1.26.241-1.313.281-2.48.625-3.448 1.012l-.126.052a10.666 10.666 0 0 0-1.064.504l-.111.06c-.861.482-1.42.982-1.698 1.448l-.007.015a1.557 1.557 0 0 0-.145.332c-.031.109-.057.218-.057.324 0 2.123 6.058 4.498 14.167 4.498 8.107 0 14.166-2.375 14.166-4.498 0-1.388-2.601-2.88-6.664-3.748zm6.664-13.628a2.18 2.18 0 0 0-2.174-2.182H3.84a2.18 2.18 0 0 0-2.173 2.182v9.86c0 1.203.975 2.182 2.173 2.182h22.19c.05-.011.105-.018.154-.029a31.396 31.396 0 0 1 1.68-.316l.171-.026a40.254 40.254 0 0 1 6.132-.465c2.065 0 4.165.158 6.133.465l.167.026a30.83 30.83 0 0 1 1.685.317c.048.01.101.018.15.028h3.858a2.18 2.18 0 0 0 2.173-2.182z"/></g></g></svg>