<svg xmlns="http://www.w3.org/2000/svg" width="98" height="98" viewBox="0 0 98 98"><defs><clipPath id="txdna"><path fill="#fff" d="M0 98V0h98v98zm68.468-1.999l27.534-27.532V29.531L68.468 2H29.53L1.998 29.53V68.47L29.53 96.001z"/></clipPath></defs><g><g><path d="M29.531 96.001L1.998 68.469V29.531L29.53 2h38.937L96.002 29.53V68.47L68.468 96.001z"/><path fill="#2d3f51" d="M29.531 96.001L1.998 68.469V29.531L29.53 2h38.937L96.002 29.53V68.47L68.468 96.001z"/><path fill="none" stroke="#c8342d" stroke-linecap="round" stroke-linejoin="round" stroke-miterlimit="50" stroke-width="4" d="M29.531 96.001v0L1.998 68.469v0-38.938 0L29.53 2v0h38.937v0L96.002 29.53V68.47L68.468 96.001v0z" clip-path="url(&quot;#txdna&quot;)"/></g></g></svg>