<svg xmlns="http://www.w3.org/2000/svg" width="50" height="50" viewBox="0 0 50 50"><g><g><path fill="#c8342d" d="M16.667 4.166h16.666v1.667H16.667zm23.701 29.167c.543.53.882 1.267.882 2.084 0 1.17-.697 2.174-1.694 2.638.277.446.444.966.444 1.528a2.915 2.915 0 0 1-2.8 2.905c.187.383.3.808.3 1.262a2.92 2.92 0 0 1-2.917 2.916h-3.75V50h-1.666v-3.334a2.92 2.92 0 0 1-2.917-2.916c0-.45.11-.87.293-1.25h-4.876a.833.833 0 0 1-.834-.834v-.833A5.84 5.84 0 0 0 15 35a.833.833 0 1 1 0-1.667h2.5a3.338 3.338 0 0 0 3.227-2.5h-7.394a.834.834 0 0 0-.833.834V50h-1.667V31.667c0-1.38 1.122-2.5 2.5-2.5v-8.334H15v8.334h6.667c.46 0 .833.373.833.833a5.008 5.008 0 0 1-3.224 4.674 7.497 7.497 0 0 1 3.224 6.16h6.543a2.884 2.884 0 0 1-.293-1.251c0-1.17.697-2.174 1.694-2.639A2.889 2.889 0 0 1 30 35.417c0-.817.34-1.554.882-2.084A2.904 2.904 0 0 1 30 31.25a2.92 2.92 0 0 1 2.917-2.917H35V16.666h1.667v11.667h1.666a2.92 2.92 0 0 1 2.917 2.917c0 .816-.34 1.553-.882 2.083zM35.833 43.75c0-.69-.56-1.25-1.25-1.25h-5.416a1.251 1.251 0 0 0 0 2.5h5.416c.69 0 1.25-.56 1.25-1.25zm2.5-4.167c0-.69-.56-1.25-1.25-1.25h-5.416c-.69 0-1.25.56-1.25 1.25s.56 1.25 1.25 1.25h5.416c.69 0 1.25-.56 1.25-1.25zm1.25-4.167c0-.689-.56-1.25-1.25-1.25h-5.416c-.69 0-1.25.561-1.25 1.25 0 .69.56 1.25 1.25 1.25h5.416c.69 0 1.25-.56 1.25-1.25zm0-4.166c0-.69-.56-1.25-1.25-1.25h-5.416c-.69 0-1.25.56-1.25 1.25s.56 1.25 1.25 1.25h5.416c.69 0 1.25-.56 1.25-1.25zM12.26 11.252l-.933.945C11.146 13.772 9.816 15 8.205 15H4.167a.834.834 0 0 1-.593-1.42l.624-.63a4.814 4.814 0 0 1-.865-2.767V9.5a.834.834 0 0 1 1.3-.69l.29.195c.57.384 1.206.64 1.872.756A2.286 2.286 0 0 1 9.071 7.5c1.102 0 2.024.794 2.232 1.845l.867.657a.832.832 0 0 1 .09 1.25zm-1.853-.496l-.397-.3a.833.833 0 0 1-.33-.665.618.618 0 0 0-.608-.625.618.618 0 0 0-.61.625v.875c0 .46-.372.834-.832.834a6.477 6.477 0 0 1-2.524-.51c.14.535.42 1.03.808 1.424.247.25.304.616.172.92h2.12c.813 0 1.474-.674 1.474-1.5 0-.22.087-.43.241-.587zm15.427 3.41v1.667H27.5V17.5h-1.667v3.333h-1.666V17.5H22.5v-1.667h1.667v-2.5c0-.46.372-.833.833-.833h2.5v1.666zm6.667-2.5v10c0 1.379-1.121 2.5-2.5 2.5H20a2.503 2.503 0 0 1-2.5-2.5v-10c0-1.378 1.121-2.5 2.5-2.5h10c1.379 0 2.5 1.122 2.5 2.5zm-1.667 0a.834.834 0 0 0-.833-.833H20a.834.834 0 0 0-.833.833v10c0 .46.373.834.833.834h10c.46 0 .833-.374.833-.833zM15 6.666v10c0 1.379-1.121 2.5-2.5 2.5h-10a2.503 2.503 0 0 1-2.5-2.5v-10c0-1.378 1.121-2.5 2.5-2.5h10c1.379 0 2.5 1.122 2.5 2.5zm-1.667 0a.834.834 0 0 0-.833-.833h-10a.834.834 0 0 0-.833.833v10c0 .46.373.834.833.834h10c.46 0 .833-.374.833-.834zM50 2.5v10c0 1.378-1.122 2.5-2.5 2.5h-10a2.503 2.503 0 0 1-2.5-2.5v-10C35 1.12 36.12 0 37.5 0h10C48.878 0 50 1.12 50 2.5zm-1.667 5.833h-1.75a4.173 4.173 0 0 1-4.083 3.333 4.173 4.173 0 0 1-4.082-3.333h-1.751V12.5c0 .46.373.833.833.833h10c.46 0 .833-.374.833-.833zM42.5 10c1.379 0 2.5-1.122 2.5-2.5C45 6.12 43.879 5 42.5 5A2.503 2.503 0 0 0 40 7.5c0 1.378 1.121 2.5 2.5 2.5zm5.833-7.5a.834.834 0 0 0-.833-.833h-10a.834.834 0 0 0-.833.833v4.166h1.75A4.174 4.174 0 0 1 42.5 3.333a4.174 4.174 0 0 1 4.082 3.333h1.751zM24.167 34.166h1.666v1.667h-1.666z"/></g></g></svg>