<svg xmlns="http://www.w3.org/2000/svg" width="50" height="50" viewBox="0 0 50 50"><g><g><path fill="#2d3f51" d="M11.667 49.166a.833.833 0 0 1-.834.834h-10A.833.833 0 0 1 0 49.166a5.84 5.84 0 0 1 5.833-5.833 5.84 5.84 0 0 1 5.834 5.833zm-1.751-.833a4.173 4.173 0 0 0-3.25-3.241v1.574H5v-1.574a4.172 4.172 0 0 0-3.25 3.241zM50 36.667v5c0 .46-.373.833-.833.833h-1.462a9.03 9.03 0 0 1-.145.347l1.034 1.034a.832.832 0 0 1 0 1.178l-3.535 3.535a.833.833 0 0 1-1.178 0l-1.034-1.034c-.116.052-.231.099-.347.145v1.461a.833.833 0 0 1-.833.834h-5a.833.833 0 0 1-.834-.834v-1.461a9.238 9.238 0 0 1-.346-.145l-1.035 1.034a.833.833 0 0 1-1.178 0L29.74 45.06a.832.832 0 0 1 0-1.178l1.034-1.034a9.043 9.043 0 0 1-.145-.347h-1.461a.833.833 0 0 1-.834-.833H10.417A2.92 2.92 0 0 1 7.5 38.75a2.92 2.92 0 0 1 2.917-2.917h1.476L15.042 30H4.167A4.171 4.171 0 0 1 0 25.833V4.167A4.172 4.172 0 0 1 4.167 0H42.5a4.172 4.172 0 0 1 4.167 4.167v21.666c0 1.596-.913 2.968-2.234 3.67a.819.819 0 0 1 .626.236l3.535 3.535a.832.832 0 0 1 0 1.178l-1.034 1.034c.052.116.1.231.145.347h1.462c.46 0 .833.372.833.834zm-48.333-15H45v-17.5c0-1.379-1.122-2.5-2.5-2.5H4.167a2.503 2.503 0 0 0-2.5 2.5zM42.5 28.332c1.378 0 2.5-1.122 2.5-2.5v-2.5H1.667v2.5c0 1.378 1.121 2.5 2.5 2.5zm0 1.667v.628c.116.046.23.093.347.145l1.023-1.023c-.432.152-.888.25-1.37.25zm-7.787 0l.774.773c.115-.052.23-.099.346-.145V30zm-2.908 0l.49.718.717-.718zm-3.472 7.5H10.417c-.69 0-1.25.56-1.25 1.25s.56 1.25 1.25 1.25h17.916zm2.295-1.668c.046-.115.094-.23.145-.347l-1.034-1.034a.832.832 0 0 1 0-1.178l1.356-1.356L29.788 30H16.935l-3.148 5.832zM48.333 37.5h-1.216a.836.836 0 0 1-.795-.584 7.49 7.49 0 0 0-.509-1.215.834.834 0 0 1 .15-.975l.864-.864-2.357-2.356-.863.863a.833.833 0 0 1-.975.15 7.528 7.528 0 0 0-1.216-.509.833.833 0 0 1-.583-.794V30H37.5v1.216a.836.836 0 0 1-.583.796 7.457 7.457 0 0 0-1.216.508.833.833 0 0 1-.975-.15l-.864-.864-2.356 2.357.863.864a.834.834 0 0 1 .15.975c-.21.403-.382.813-.508 1.215a.834.834 0 0 1-.795.583H30v3.333h1.216c.364 0 .685.236.796.583.126.403.297.813.508 1.216a.833.833 0 0 1-.15.975l-.863.863 2.356 2.357.864-.863a.835.835 0 0 1 .975-.15c.403.21.813.382 1.215.508.347.11.583.431.583.795v1.216h3.333v-1.216c0-.364.236-.685.584-.795a7.5 7.5 0 0 0 1.215-.509.835.835 0 0 1 .975.15l.864.863 2.356-2.356-.863-.864a.834.834 0 0 1-.15-.975 7.49 7.49 0 0 0 .508-1.215.834.834 0 0 1 .795-.583h1.216zm-4.166 1.667c0 2.757-2.243 5-5 5-2.758 0-5-2.243-5-5 0-2.758 2.242-5 5-5 2.757 0 5 2.242 5 5zm-1.667 0a3.337 3.337 0 0 0-3.333-3.334 3.337 3.337 0 0 0-3.334 3.334 3.337 3.337 0 0 0 3.334 3.333 3.337 3.337 0 0 0 3.333-3.333zm-31.322-27.5l5.244 5.244-1.178 1.178-5.833-5.833a.832.832 0 0 1 0-1.179l5.833-5.833 1.178 1.178zm23.578.589l-5.834 5.833-1.178-1.178 5.244-5.245-5.244-5.244 1.178-1.178 5.834 5.833a.832.832 0 0 1 0 1.179zM17.587 17.96l7.498-14.996 1.49.745-7.497 14.996zM32.5 16.666h1.667v1.667H32.5zm3.333 0H37.5v1.667h-1.667zm3.334 0h1.666v1.667h-1.666z"/></g></g></svg>