<svg xmlns="http://www.w3.org/2000/svg" width="50" height="50" viewBox="0 0 50 50"><g><g><path fill="#c8342d" d="M38.328 20.824c0 9.665-7.833 17.5-17.494 17.5-9.662 0-17.494-7.835-17.494-17.5 0-9.664 7.832-17.499 17.494-17.499 9.657.01 17.483 7.84 17.494 17.5zM5.365 17.491h3.091a3.326 3.326 0 0 1 6.546.833 3.29 3.29 0 0 1-.472 1.683l3.789 3.79a3.23 3.23 0 0 1 3.364 0l5.454-5.457a3.29 3.29 0 0 1-.472-1.682 3.333 3.333 0 0 1 3.332-3.333 3.283 3.283 0 0 1 1.68.475l2.082-2.084a15.81 15.81 0 0 0-12.925-6.725 15.852 15.852 0 0 0-15.469 12.5zm24.632-2.5a1.666 1.666 0 1 0 0 3.333 1.666 1.666 0 0 0 0-3.333zm-9.996 10a1.666 1.666 0 1 0 0 3.333 1.666 1.666 0 0 0 0-3.333zm-8.331-8.333a1.666 1.666 0 1 0 0 3.333 1.666 1.666 0 0 0 0-3.333zm23.003-3.498l-1.816 1.815c.306.508.47 1.09.472 1.683a3.333 3.333 0 0 1-3.332 3.333 3.291 3.291 0 0 1-1.682-.472l-5.455 5.456c.307.508.47 1.09.473 1.683a3.333 3.333 0 1 1-6.665 0 3.29 3.29 0 0 1 .473-1.683l-3.79-3.79a3.283 3.283 0 0 1-1.681.473 3.332 3.332 0 0 1-3.214-2.5H5.095c-.06.56-.09 1.124-.09 1.688.006 8.738 7.093 15.817 15.829 15.811a15.81 15.81 0 0 0 7.69-1.988c7.636-4.242 10.389-13.871 6.15-21.51zm5.306-5.308l-1.666 1.666a20.769 20.769 0 0 1 0 22.613l2.514 2.515 1.178 1.178 6.706 6.708a4.37 4.37 0 0 1 0 6.178 4.366 4.366 0 0 1-6.176 0l-6.706-6.708-1.178-1.178-2.514-2.515c-9.113 5.903-21.231 3.814-27.842-4.801-7.003-9.128-5.284-22.206 3.84-29.211C17.259-2.708 30.333-.99 37.337 8.138L38.8 6.674a3.29 3.29 0 0 1-.472-1.683 3.333 3.333 0 0 1 3.332-3.333 3.333 3.333 0 0 1 3.214 2.5h5.117v1.667h-5.117a3.332 3.332 0 0 1-3.214 2.5 3.288 3.288 0 0 1-1.681-.473zm.015-2.86a1.666 1.666 0 1 0 3.333 0 1.666 1.666 0 0 0-3.333 0zm.833 32.01l-3.82 3.822 6.706 6.708a2.701 2.701 0 1 0 3.82-3.822zm-3.484-3.484c-.09.117-.189.227-.28.342a20.468 20.468 0 0 1-.775.913l-.25.267c-.32.341-.65.672-.992.992-.09.084-.176.167-.267.25a21.016 21.016 0 0 1-.913.775c-.116.093-.226.192-.343.282l2.306 2.307 3.82-3.822zm-.925-23.882C30.258 1.009 18.272-.988 9.648 5.175c-8.624 6.163-10.62 18.152-4.46 26.778 6.162 8.627 18.147 10.624 26.771 4.461.367-.263.726-.533 1.071-.82.101-.083.199-.174.298-.257a17.72 17.72 0 0 0 1.224-1.151c.271-.28.534-.567.79-.863.085-.1.174-.197.258-.298.285-.346.556-.705.818-1.072a19.2 19.2 0 0 0 0-22.317z"/></g></g></svg>