<svg xmlns="http://www.w3.org/2000/svg" width="50" height="47" viewBox="0 0 50 47"><g><g><path fill="#c8342d" d="M50 25.273v.887c0 4.168-3.393 7.538-7.59 7.538h-3.124a1.785 1.785 0 0 1-1.786-1.774V19.51c0-.975.804-1.773 1.786-1.773h1.785c0-8.824-7.187-15.962-16.071-15.962S8.929 8.912 8.929 17.736h1.785c.982 0 1.786.798 1.786 1.773v12.415c0 .976-.804 1.774-1.786 1.774h-.625l2.59 4.035a10.201 10.201 0 0 0 8.705 4.833h.625c.402-1.508 1.786-2.66 3.437-2.66 1.965 0 3.572 1.596 3.572 3.547 0 1.95-1.607 3.547-3.572 3.547-1.651 0-3.035-1.153-3.437-2.66h-.625c-4.196 0-7.991-2.085-10.223-5.632l-3.17-5.01h-.402C3.393 33.698 0 30.328 0 26.16v-.887c0-3.99 3.17-7.271 7.143-7.493v-.044C7.143 7.936 15.133 0 25 0c9.866 0 17.857 7.936 17.857 17.78C46.83 18.002 50 21.283 50 25.273zm-26.34 18.18c0 .975.804 1.773 1.786 1.773.983 0 1.786-.798 1.786-1.773 0-.976-.803-1.774-1.786-1.774-.982 0-1.785.798-1.785 1.774zM7.59 19.509c-3.215 0-5.804 2.572-5.804 5.764v.887c0 3.192 2.589 5.764 5.803 5.764h3.125V19.51zm40.624 5.764c0-3.192-2.59-5.764-5.803-5.764h-3.125v12.415h3.125c3.214 0 5.803-2.571 5.803-5.764zM32.768 7.893a.83.83 0 0 1-.76.443.863.863 0 0 1-.446-.133c-.133-.045-.267-.134-.401-.222-.134-.089-.268-.177-.358-.222-.446-.266-.535-.753-.312-1.197.223-.443.804-.576 1.205-.31.09.044.224.133.358.221.133.089.267.178.357.222.446.266.58.798.357 1.197zm-4.956-3.149c.447.133.804.62.67 1.064a.948.948 0 0 1-1.071.665A11.17 11.17 0 0 0 25 6.207c-3.259 0-6.34 1.42-8.482 3.858a.805.805 0 0 1-.67.31c-.223 0-.402-.088-.58-.221a.895.895 0 0 1-.09-1.242A12.966 12.966 0 0 1 25 4.434c.937 0 1.875.089 2.812.31z"/></g></g></svg>